<svg version="1.1" xmlns="http://www.w3.org/2000/svg" xmlns:xlink="http://www.w3.org/1999/xlink" width="665.53076171875" height="369"><defs/><g><g transform="translate(-94,-326) scale(1,1)"><rect fill="#C0C0C0" stroke="none" x="303" y="343" width="149.53076171875" height="85" opacity="0.2"/></g><g transform="translate(-94,-326) scale(1,1)"><rect fill="#ffffff" stroke="none" x="296" y="336" width="149.53076171875" height="85"/></g><g transform="translate(-94,-326) scale(1,1)"><path fill="none" stroke="#000000" d="M 296 336 L 445.53076171875 336 L 445.53076171875 421 L 296 421 L 296 336 Z Z" stroke-miterlimit="10"/></g><g transform="translate(-94,-326) scale(1,1)"><path fill="none" stroke="#000000" d="M 296 361 L 445.53076171875 361" stroke-miterlimit="10"/></g><g transform="translate(-94,-326) scale(1,1)"><path fill="none" stroke="#000000" d="M 296 384 L 445.53076171875 384" stroke-miterlimit="10"/></g><g transform="translate(-94,-326) scale(1,1)"><g><path fill="none" stroke="none"/><text fill="#000000" stroke="none" font-family="Arial" font-size="13px" font-style="italic" font-weight="bold" text-decoration="none" x="342.9404296875" y="355.5">Beverage</text></g></g><g transform="translate(-94,-326) scale(1,1)"><g><path fill="none" stroke="none"/><text fill="#000000" stroke="none" font-family="Arial" font-size="13px" font-style="normal" font-weight="normal" text-decoration="none" x="301" y="378.5">~description: String</text></g></g><g transform="translate(-94,-326) scale(1,1)"><g><path fill="none" stroke="none"/><text fill="#000000" stroke="none" font-family="Arial" font-size="13px" font-style="normal" font-weight="normal" text-decoration="none" x="301" y="401.5">+getDescription(): String</text></g></g><g transform="translate(-94,-326) scale(1,1)"><g><path fill="none" stroke="none"/><text fill="#000000" stroke="none" font-family="Arial" font-size="13px" font-style="italic" font-weight="normal" text-decoration="none" x="301" y="416.5">+cost(): double</text></g></g><g transform="translate(-94,-326) scale(1,1)"><rect fill="#C0C0C0" stroke="none" x="487" y="479" width="149.53076171875" height="57" opacity="0.2"/></g><g transform="translate(-94,-326) scale(1,1)"><rect fill="#ffffff" stroke="none" x="480" y="472" width="149.53076171875" height="57"/></g><g transform="translate(-94,-326) scale(1,1)"><path fill="none" stroke="#000000" d="M 480 472 L 629.53076171875 472 L 629.53076171875 529 L 480 529 L 480 472 Z Z" stroke-miterlimit="10"/></g><g transform="translate(-94,-326) scale(1,1)"><path fill="none" stroke="#000000" d="M 480 497 L 629.53076171875 497" stroke-miterlimit="10"/></g><g transform="translate(-94,-326) scale(1,1)"><path fill="none" stroke="#000000" d="M 480 507 L 629.53076171875 507" stroke-miterlimit="10"/></g><g transform="translate(-94,-326) scale(1,1)"><g><path fill="none" stroke="none"/><text fill="#000000" stroke="none" font-family="Arial" font-size="13px" font-style="italic" font-weight="bold" text-decoration="none" x="494.792724609375" y="491.5">CondimentDecorator</text></g></g><g transform="translate(-94,-326) scale(1,1)"><g><path fill="none" stroke="none"/><text fill="#000000" stroke="none" font-family="Arial" font-size="13px" font-style="italic" font-weight="normal" text-decoration="none" x="485" y="524.5">+getDescription(): String</text></g></g><g transform="translate(-94,-326) scale(1,1)"><path fill="none" stroke="#000000" d="M 510 471 L 436 422" stroke-miterlimit="10"/></g><g transform="translate(-94,-326) scale(1,1)"><path fill="#FFFFFF" stroke="none" d="M 457.5949903399231 426.20195100145503 L 436 422 L 448.2987360616752 440.24119215636006"/></g><g transform="translate(-94,-326) scale(1,1)"><path fill="none" stroke="#000000" d="M 457.5949903399231 426.20195100145503 L 436 422 L 448.2987360616752 440.24119215636006 L 457.5949903399231 426.20195100145503" stroke-miterlimit="10"/></g><g transform="translate(-94,-326) scale(1,1)"><rect fill="#C0C0C0" stroke="none" x="111" y="439" width="95.353515625" height="57" opacity="0.2"/></g><g transform="translate(-94,-326) scale(1,1)"><rect fill="#ffffff" stroke="none" x="104" y="432" width="95.353515625" height="57"/></g><g transform="translate(-94,-326) scale(1,1)"><path fill="none" stroke="#000000" d="M 104 432 L 199.353515625 432 L 199.353515625 489 L 104 489 L 104 432 Z Z" stroke-miterlimit="10"/></g><g transform="translate(-94,-326) scale(1,1)"><path fill="none" stroke="#000000" d="M 104 457 L 199.353515625 457" stroke-miterlimit="10"/></g><g transform="translate(-94,-326) scale(1,1)"><path fill="none" stroke="#000000" d="M 104 467 L 199.353515625 467" stroke-miterlimit="10"/></g><g transform="translate(-94,-326) scale(1,1)"><g><path fill="none" stroke="none"/><text fill="#000000" stroke="none" font-family="Arial" font-size="13px" font-style="normal" font-weight="bold" text-decoration="none" x="116.26318359375" y="451.5">HouseBlend</text></g></g><g transform="translate(-94,-326) scale(1,1)"><g><path fill="none" stroke="none"/><text fill="#000000" stroke="none" font-family="Arial" font-size="13px" font-style="normal" font-weight="normal" text-decoration="none" x="109" y="484.5">+cost(): double</text></g></g><g transform="translate(-94,-326) scale(1,1)"><path fill="none" stroke="#000000" d="M 200 442 L 295 406" stroke-miterlimit="10"/></g><g transform="translate(-94,-326) scale(1,1)"><path fill="#FFFFFF" stroke="none" d="M 278.97690983192865 421.07516439266436 L 295 406 L 273.0102133170383 405.3297152561482"/></g><g transform="translate(-94,-326) scale(1,1)"><path fill="none" stroke="#000000" d="M 278.97690983192865 421.07516439266436 L 295 406 L 273.0102133170383 405.3297152561482 L 278.97690983192865 421.07516439266436" stroke-miterlimit="10"/></g><g transform="translate(-94,-326) scale(1,1)"><rect fill="#C0C0C0" stroke="none" x="223" y="519" width="95.353515625" height="57" opacity="0.2"/></g><g transform="translate(-94,-326) scale(1,1)"><rect fill="#ffffff" stroke="none" x="216" y="512" width="95.353515625" height="57"/></g><g transform="translate(-94,-326) scale(1,1)"><path fill="none" stroke="#000000" d="M 216 512 L 311.353515625 512 L 311.353515625 569 L 216 569 L 216 512 Z Z" stroke-miterlimit="10"/></g><g transform="translate(-94,-326) scale(1,1)"><path fill="none" stroke="#000000" d="M 216 537 L 311.353515625 537" stroke-miterlimit="10"/></g><g transform="translate(-94,-326) scale(1,1)"><path fill="none" stroke="#000000" d="M 216 547 L 311.353515625 547" stroke-miterlimit="10"/></g><g transform="translate(-94,-326) scale(1,1)"><g><path fill="none" stroke="none"/><text fill="#000000" stroke="none" font-family="Arial" font-size="13px" font-style="normal" font-weight="bold" text-decoration="none" x="228.26318359375" y="531.5">HouseBlend</text></g></g><g transform="translate(-94,-326) scale(1,1)"><g><path fill="none" stroke="none"/><text fill="#000000" stroke="none" font-family="Arial" font-size="13px" font-style="normal" font-weight="normal" text-decoration="none" x="221" y="564.5">+cost(): double</text></g></g><g transform="translate(-94,-326) scale(1,1)"><path fill="none" stroke="#000000" d="M 282 511 L 341 422" stroke-miterlimit="10"/></g><g transform="translate(-94,-326) scale(1,1)"><path fill="#FFFFFF" stroke="none" d="M 336.78665621661276 443.59277041426117 L 341 422 L 322.75232165476837 434.289110423825"/></g><g transform="translate(-94,-326) scale(1,1)"><path fill="none" stroke="#000000" d="M 336.78665621661276 443.59277041426117 L 341 422 L 322.75232165476837 434.289110423825 L 336.78665621661276 443.59277041426117" stroke-miterlimit="10"/></g><g transform="translate(-94,-326) scale(1,1)"><rect fill="#C0C0C0" stroke="none" x="362" y="496" width="95.353515625" height="57" opacity="0.2"/></g><g transform="translate(-94,-326) scale(1,1)"><rect fill="#ffffff" stroke="none" x="355" y="489" width="95.353515625" height="57"/></g><g transform="translate(-94,-326) scale(1,1)"><path fill="none" stroke="#000000" d="M 355 489 L 450.353515625 489 L 450.353515625 546 L 355 546 L 355 489 Z Z" stroke-miterlimit="10"/></g><g transform="translate(-94,-326) scale(1,1)"><path fill="none" stroke="#000000" d="M 355 514 L 450.353515625 514" stroke-miterlimit="10"/></g><g transform="translate(-94,-326) scale(1,1)"><path fill="none" stroke="#000000" d="M 355 524 L 450.353515625 524" stroke-miterlimit="10"/></g><g transform="translate(-94,-326) scale(1,1)"><g><path fill="none" stroke="none"/><text fill="#000000" stroke="none" font-family="Arial" font-size="13px" font-style="normal" font-weight="bold" text-decoration="none" x="367.26318359375" y="508.5">HouseBlend</text></g></g><g transform="translate(-94,-326) scale(1,1)"><g><path fill="none" stroke="none"/><text fill="#000000" stroke="none" font-family="Arial" font-size="13px" font-style="normal" font-weight="normal" text-decoration="none" x="360" y="541.5">+cost(): double</text></g></g><g transform="translate(-94,-326) scale(1,1)"><path fill="none" stroke="#000000" d="M 395 488 L 380 422" stroke-miterlimit="10"/></g><g transform="translate(-94,-326) scale(1,1)"><path fill="#FFFFFF" stroke="none" d="M 392.7142045765825 439.954080371459 L 380 422 L 376.2948482928676 443.68575225412144"/></g><g transform="translate(-94,-326) scale(1,1)"><path fill="none" stroke="#000000" d="M 392.7142045765825 439.954080371459 L 380 422 L 376.2948482928676 443.68575225412144 L 392.7142045765825 439.954080371459" stroke-miterlimit="10"/></g><g transform="translate(-94,-326) scale(1,1)"><rect fill="#C0C0C0" stroke="none" x="415" y="607" width="154.98974609375" height="85" opacity="0.2"/></g><g transform="translate(-94,-326) scale(1,1)"><rect fill="#ffffff" stroke="none" x="408" y="600" width="154.98974609375" height="85"/></g><g transform="translate(-94,-326) scale(1,1)"><path fill="none" stroke="#000000" d="M 408 600 L 562.98974609375 600 L 562.98974609375 685 L 408 685 L 408 600 Z Z" stroke-miterlimit="10"/></g><g transform="translate(-94,-326) scale(1,1)"><path fill="none" stroke="#000000" d="M 408 625 L 562.98974609375 625" stroke-miterlimit="10"/></g><g transform="translate(-94,-326) scale(1,1)"><path fill="none" stroke="#000000" d="M 408 648 L 562.98974609375 648" stroke-miterlimit="10"/></g><g transform="translate(-94,-326) scale(1,1)"><g><path fill="none" stroke="none"/><text fill="#000000" stroke="none" font-family="Arial" font-size="13px" font-style="normal" font-weight="bold" text-decoration="none" x="470.685791015625" y="619.5">Whip</text></g></g><g transform="translate(-94,-326) scale(1,1)"><g><path fill="none" stroke="none"/><text fill="#000000" stroke="none" font-family="Arial" font-size="13px" font-style="normal" font-weight="normal" text-decoration="none" x="413" y="642.5">~beverage: Beverage</text></g></g><g transform="translate(-94,-326) scale(1,1)"><g><path fill="none" stroke="none"/><text fill="#000000" stroke="none" font-family="Arial" font-size="13px" font-style="normal" font-weight="normal" text-decoration="none" x="413" y="665.5">+getDescription(): String</text></g></g><g transform="translate(-94,-326) scale(1,1)"><g><path fill="none" stroke="none"/><text fill="#000000" stroke="none" font-family="Arial" font-size="13px" font-style="normal" font-weight="normal" text-decoration="none" x="413" y="680.5">+cost(): double</text></g></g><g transform="translate(-94,-326) scale(1,1)"><path fill="none" stroke="#000000" d="M 506 599 L 539 530" stroke-miterlimit="10"/></g><g transform="translate(-94,-326) scale(1,1)"><path fill="#FFFFFF" stroke="none" d="M 537.8256161792996 551.9686326985017 L 539 530 L 522.6354160821598 544.703754391174"/></g><g transform="translate(-94,-326) scale(1,1)"><path fill="none" stroke="#000000" d="M 537.8256161792996 551.9686326985017 L 539 530 L 522.6354160821598 544.703754391174 L 537.8256161792996 551.9686326985017" stroke-miterlimit="10"/></g><g transform="translate(-94,-326) scale(1,1)"><rect fill="#C0C0C0" stroke="none" x="607" y="607" width="149.53076171875" height="85" opacity="0.2"/></g><g transform="translate(-94,-326) scale(1,1)"><rect fill="#ffffff" stroke="none" x="600" y="600" width="149.53076171875" height="85"/></g><g transform="translate(-94,-326) scale(1,1)"><path fill="none" stroke="#000000" d="M 600 600 L 749.53076171875 600 L 749.53076171875 685 L 600 685 L 600 600 Z Z" stroke-miterlimit="10"/></g><g transform="translate(-94,-326) scale(1,1)"><path fill="none" stroke="#000000" d="M 600 625 L 749.53076171875 625" stroke-miterlimit="10"/></g><g transform="translate(-94,-326) scale(1,1)"><path fill="none" stroke="#000000" d="M 600 648 L 749.53076171875 648" stroke-miterlimit="10"/></g><g transform="translate(-94,-326) scale(1,1)"><g><path fill="none" stroke="none"/><text fill="#000000" stroke="none" font-family="Arial" font-size="13px" font-style="normal" font-weight="bold" text-decoration="none" x="655.255859375" y="619.5">Mocha</text></g></g><g transform="translate(-94,-326) scale(1,1)"><g><path fill="none" stroke="none"/><text fill="#000000" stroke="none" font-family="Arial" font-size="13px" font-style="normal" font-weight="normal" text-decoration="none" x="605" y="642.5">~beverage: Beverage</text></g></g><g transform="translate(-94,-326) scale(1,1)"><g><path fill="none" stroke="none"/><text fill="#000000" stroke="none" font-family="Arial" font-size="13px" font-style="normal" font-weight="normal" text-decoration="none" x="605" y="665.5">+getDescription(): String</text></g></g><g transform="translate(-94,-326) scale(1,1)"><g><path fill="none" stroke="none"/><text fill="#000000" stroke="none" font-family="Arial" font-size="13px" font-style="normal" font-weight="normal" text-decoration="none" x="605" y="680.5">+cost(): double</text></g></g><g transform="translate(-94,-326) scale(1,1)"><path fill="none" stroke="#000000" d="M 638 599 L 579 530" stroke-miterlimit="10"/></g><g transform="translate(-94,-326) scale(1,1)"><path fill="#FFFFFF" stroke="none" d="M 598.6078651388979 539.9765537484041 L 579 530 L 585.8103655959375 550.9193432126746"/></g><g transform="translate(-94,-326) scale(1,1)"><path fill="none" stroke="#000000" d="M 598.6078651388979 539.9765537484041 L 579 530 L 585.8103655959375 550.9193432126746 L 598.6078651388979 539.9765537484041" stroke-miterlimit="10"/></g><g transform="translate(-94,-326) scale(1,1)"><path fill="none" stroke="#000000" d="M 552 471 Q 544 378 447 378" stroke-miterlimit="10"/></g><g transform="translate(-94,-326) scale(1,1)"><path fill="none" stroke="#000000" d="M 457.16267485762415 373.790482243984 L 447 378 L 457.16267485762415 382.209517756016" stroke-miterlimit="10"/></g></g></svg>