<svg version="1.1" xmlns="http://www.w3.org/2000/svg" xmlns:xlink="http://www.w3.org/1999/xlink" width="803.3759765625" height="351"><defs/><g><g transform="translate(-422,-198) scale(1,1)"><rect fill="#C0C0C0" stroke="none" x="551" y="255" width="124.25439453125" height="175" opacity="0.2"/></g><g transform="translate(-422,-198) scale(1,1)"><rect fill="#ffffff" stroke="none" x="544" y="248" width="124.25439453125" height="175"/></g><g transform="translate(-422,-198) scale(1,1)"><path fill="none" stroke="#000000" d="M 544 248 L 668.25439453125 248 L 668.25439453125 423 L 544 423 L 544 248 Z Z" stroke-miterlimit="10"/></g><g transform="translate(-422,-198) scale(1,1)"><path fill="none" stroke="#000000" d="M 544 273 L 668.25439453125 273" stroke-miterlimit="10"/></g><g transform="translate(-422,-198) scale(1,1)"><path fill="none" stroke="#000000" d="M 544 341 L 668.25439453125 341" stroke-miterlimit="10"/></g><g transform="translate(-422,-198) scale(1,1)"><g><path fill="none" stroke="none"/><text fill="#000000" stroke="none" font-family="Arial" font-size="13px" font-style="normal" font-weight="bold" text-decoration="none" x="590.232666015625" y="267.5">Pizza</text></g></g><g transform="translate(-422,-198) scale(1,1)"><g><path fill="none" stroke="none"/><text fill="#000000" stroke="none" font-family="Arial" font-size="13px" font-style="normal" font-weight="normal" text-decoration="none" x="549" y="290.5">~name: String</text></g></g><g transform="translate(-422,-198) scale(1,1)"><g><path fill="none" stroke="none"/><text fill="#000000" stroke="none" font-family="Arial" font-size="13px" font-style="normal" font-weight="normal" text-decoration="none" x="549" y="305.5">~dough: String</text></g></g><g transform="translate(-422,-198) scale(1,1)"><g><path fill="none" stroke="none"/><text fill="#000000" stroke="none" font-family="Arial" font-size="13px" font-style="normal" font-weight="normal" text-decoration="none" x="549" y="320.5">~sauce: String</text></g></g><g transform="translate(-422,-198) scale(1,1)"><g><path fill="none" stroke="none"/><text fill="#000000" stroke="none" font-family="Arial" font-size="13px" font-style="normal" font-weight="normal" text-decoration="none" x="549" y="335.5">~toppings: ArrayList</text></g></g><g transform="translate(-422,-198) scale(1,1)"><g><path fill="none" stroke="none"/><text fill="#000000" stroke="none" font-family="Arial" font-size="13px" font-style="normal" font-weight="normal" text-decoration="none" x="549" y="358.5">~prepare()</text></g></g><g transform="translate(-422,-198) scale(1,1)"><g><path fill="none" stroke="none"/><text fill="#000000" stroke="none" font-family="Arial" font-size="13px" font-style="normal" font-weight="normal" text-decoration="none" x="549" y="373.5">~bake()</text></g></g><g transform="translate(-422,-198) scale(1,1)"><g><path fill="none" stroke="none"/><text fill="#000000" stroke="none" font-family="Arial" font-size="13px" font-style="normal" font-weight="normal" text-decoration="none" x="549" y="388.5">~cut()</text></g></g><g transform="translate(-422,-198) scale(1,1)"><g><path fill="none" stroke="none"/><text fill="#000000" stroke="none" font-family="Arial" font-size="13px" font-style="normal" font-weight="normal" text-decoration="none" x="549" y="403.5">~box()</text></g></g><g transform="translate(-422,-198) scale(1,1)"><g><path fill="none" stroke="none"/><text fill="#000000" stroke="none" font-family="Arial" font-size="13px" font-style="normal" font-weight="normal" text-decoration="none" x="549" y="418.5">+getName(): String</text></g></g><g transform="translate(-422,-198) scale(1,1)"><rect fill="#C0C0C0" stroke="none" x="919" y="303" width="194.326171875" height="72" opacity="0.2"/></g><g transform="translate(-422,-198) scale(1,1)"><rect fill="#ffffff" stroke="none" x="912" y="296" width="194.326171875" height="72"/></g><g transform="translate(-422,-198) scale(1,1)"><path fill="none" stroke="#000000" d="M 912 296 L 1106.326171875 296 L 1106.326171875 368 L 912 368 L 912 296 Z Z" stroke-miterlimit="10"/></g><g transform="translate(-422,-198) scale(1,1)"><path fill="none" stroke="#000000" d="M 912 321 L 1106.326171875 321" stroke-miterlimit="10"/></g><g transform="translate(-422,-198) scale(1,1)"><path fill="none" stroke="#000000" d="M 912 331 L 1106.326171875 331" stroke-miterlimit="10"/></g><g transform="translate(-422,-198) scale(1,1)"><g><path fill="none" stroke="none"/><text fill="#000000" stroke="none" font-family="Arial" font-size="13px" font-style="italic" font-weight="bold" text-decoration="none" x="977.732666015625" y="315.5">PizzaStore</text></g></g><g transform="translate(-422,-198) scale(1,1)"><g><path fill="none" stroke="none"/><text fill="#000000" stroke="none" font-family="Arial" font-size="13px" font-style="normal" font-weight="normal" text-decoration="none" x="917" y="348.5">+orderPizza(String type): Pizza</text></g></g><g transform="translate(-422,-198) scale(1,1)"><g><path fill="none" stroke="none"/><text fill="#000000" stroke="none" font-family="Arial" font-size="13px" font-style="italic" font-weight="normal" text-decoration="none" x="917" y="363.5">#createPizza(String type): Pizza</text></g></g><g transform="translate(-422,-198) scale(1,1)"><rect fill="#C0C0C0" stroke="none" x="823" y="445" width="195.0498046875" height="57" opacity="0.2"/></g><g transform="translate(-422,-198) scale(1,1)"><rect fill="#ffffff" stroke="none" x="816" y="438" width="195.0498046875" height="57"/></g><g transform="translate(-422,-198) scale(1,1)"><path fill="none" stroke="#000000" d="M 816 438 L 1011.0498046875 438 L 1011.0498046875 495 L 816 495 L 816 438 Z Z" stroke-miterlimit="10"/></g><g transform="translate(-422,-198) scale(1,1)"><path fill="none" stroke="#000000" d="M 816 463 L 1011.0498046875 463" stroke-miterlimit="10"/></g><g transform="translate(-422,-198) scale(1,1)"><path fill="none" stroke="#000000" d="M 816 473 L 1011.0498046875 473" stroke-miterlimit="10"/></g><g transform="translate(-422,-198) scale(1,1)"><g><path fill="none" stroke="none"/><text fill="#000000" stroke="none" font-family="Arial" font-size="13px" font-style="normal" font-weight="bold" text-decoration="none" x="873.06494140625" y="457.5">NYPizzaStore</text></g></g><g transform="translate(-422,-198) scale(1,1)"><g><path fill="none" stroke="none"/><text fill="#000000" stroke="none" font-family="Arial" font-size="13px" font-style="normal" font-weight="normal" text-decoration="none" x="821" y="490.5">#createPizza(String type): PIzza</text></g></g><g transform="translate(-422,-198) scale(1,1)"><path fill="none" stroke="#000000" d="M 934 437 L 982 369" stroke-miterlimit="10"/></g><g transform="translate(-422,-198) scale(1,1)"><path fill="#FFFFFF" stroke="none" d="M 977.1567937869146 390.4602738467507 L 982 369 L 963.4006308808848 380.7500412072002"/></g><g transform="translate(-422,-198) scale(1,1)"><path fill="none" stroke="#000000" d="M 977.1567937869146 390.4602738467507 L 982 369 L 963.4006308808848 380.7500412072002 L 977.1567937869146 390.4602738467507" stroke-miterlimit="10"/></g><g transform="translate(-422,-198) scale(1,1)"><rect fill="#C0C0C0" stroke="none" x="1028.0498046875" y="445" width="194.326171875" height="58" opacity="0.2"/></g><g transform="translate(-422,-198) scale(1,1)"><rect fill="#ffffff" stroke="none" x="1021.0498046875" y="438" width="194.326171875" height="58"/></g><g transform="translate(-422,-198) scale(1,1)"><path fill="none" stroke="#000000" d="M 1021.0498046875 438 L 1215.3759765625 438 L 1215.3759765625 496 L 1021.0498046875 496 L 1021.0498046875 438 Z Z" stroke-miterlimit="10"/></g><g transform="translate(-422,-198) scale(1,1)"><path fill="none" stroke="#000000" d="M 1021.0498046875 463 L 1215.3759765625 463" stroke-miterlimit="10"/></g><g transform="translate(-422,-198) scale(1,1)"><path fill="none" stroke="#000000" d="M 1021.0498046875 473 L 1215.3759765625 473" stroke-miterlimit="10"/></g><g transform="translate(-422,-198) scale(1,1)"><g><path fill="none" stroke="none"/><text fill="#000000" stroke="none" font-family="Arial" font-size="13px" font-style="normal" font-weight="bold" text-decoration="none" x="1062.934326171875" y="457.5">ChicagoPizzaStore</text></g></g><g transform="translate(-422,-198) scale(1,1)"><g><path fill="none" stroke="none"/><text fill="#000000" stroke="none" font-family="Arial" font-size="13px" font-style="normal" font-weight="normal" text-decoration="none" x="1026.0498046875" y="490.5">#createPizza(String type): Pizza</text></g></g><g transform="translate(-422,-198) scale(1,1)"><path fill="none" stroke="#000000" d="M 1094 437 L 1039 369" stroke-miterlimit="10"/></g><g transform="translate(-422,-198) scale(1,1)"><path fill="#FFFFFF" stroke="none" d="M 1058.327880746222 379.50871190297926 L 1039 369 L 1045.2360940934861 390.09765698975093"/></g><g transform="translate(-422,-198) scale(1,1)"><path fill="none" stroke="#000000" d="M 1058.327880746222 379.50871190297926 L 1039 369 L 1045.2360940934861 390.09765698975093 L 1058.327880746222 379.50871190297926" stroke-miterlimit="10"/></g><g transform="translate(-422,-198) scale(1,1)"><rect fill="#C0C0C0" stroke="none" x="439" y="479" width="136.892578125" height="67" opacity="0.2"/></g><g transform="translate(-422,-198) scale(1,1)"><rect fill="#ffffff" stroke="none" x="432" y="472" width="136.892578125" height="67"/></g><g transform="translate(-422,-198) scale(1,1)"><path fill="none" stroke="#000000" d="M 432 472 L 568.892578125 472 L 568.892578125 539 L 432 539 L 432 472 Z Z" stroke-miterlimit="10"/></g><g transform="translate(-422,-198) scale(1,1)"><path fill="none" stroke="#000000" d="M 432 497 L 568.892578125 497" stroke-miterlimit="10"/></g><g transform="translate(-422,-198) scale(1,1)"><path fill="none" stroke="#000000" d="M 432 507 L 568.892578125 507" stroke-miterlimit="10"/></g><g transform="translate(-422,-198) scale(1,1)"><g><path fill="none" stroke="none"/><text fill="#000000" stroke="none" font-family="Arial" font-size="13px" font-style="normal" font-weight="bold" text-decoration="none" x="438.667724609375" y="491.5">NYStyleCheesePizza</text></g></g><g transform="translate(-422,-198) scale(1,1)"><path fill="none" stroke="#000000" d="M 521 471 L 551 424" stroke-miterlimit="10"/></g><g transform="translate(-422,-198) scale(1,1)"><path fill="#FFFFFF" stroke="none" d="M 547.1608332764753 445.6624282772957 L 551 424 L 532.967649243847 436.60294910753294"/></g><g transform="translate(-422,-198) scale(1,1)"><path fill="none" stroke="#000000" d="M 547.1608332764753 445.6624282772957 L 551 424 L 532.967649243847 436.60294910753294 L 547.1608332764753 445.6624282772957" stroke-miterlimit="10"/></g><g transform="translate(-422,-198) scale(1,1)"><rect fill="#C0C0C0" stroke="none" x="631" y="479" width="170.1162109375" height="57" opacity="0.2"/></g><g transform="translate(-422,-198) scale(1,1)"><rect fill="#ffffff" stroke="none" x="624" y="472" width="170.1162109375" height="57"/></g><g transform="translate(-422,-198) scale(1,1)"><path fill="none" stroke="#000000" d="M 624 472 L 794.1162109375 472 L 794.1162109375 529 L 624 529 L 624 472 Z Z" stroke-miterlimit="10"/></g><g transform="translate(-422,-198) scale(1,1)"><path fill="none" stroke="#000000" d="M 624 497 L 794.1162109375 497" stroke-miterlimit="10"/></g><g transform="translate(-422,-198) scale(1,1)"><path fill="none" stroke="#000000" d="M 624 507 L 794.1162109375 507" stroke-miterlimit="10"/></g><g transform="translate(-422,-198) scale(1,1)"><g><path fill="none" stroke="none"/><text fill="#000000" stroke="none" font-family="Arial" font-size="13px" font-style="normal" font-weight="bold" text-decoration="none" x="632.4609375" y="491.5">ChicagoStyleCheesePizza</text></g></g><g transform="translate(-422,-198) scale(1,1)"><g><path fill="none" stroke="none"/><text fill="#000000" stroke="none" font-family="Arial" font-size="13px" font-style="normal" font-weight="normal" text-decoration="none" x="629" y="524.5">~cut()</text></g></g><g transform="translate(-422,-198) scale(1,1)"><path fill="none" stroke="#000000" d="M 691 471 L 662 424" stroke-miterlimit="10"/></g><g transform="translate(-422,-198) scale(1,1)"><path fill="#FFFFFF" stroke="none" d="M 679.8378924740401 436.87670734639033 L 662 424 L 665.508087646483 445.7185018144575"/></g><g transform="translate(-422,-198) scale(1,1)"><path fill="none" stroke="#000000" d="M 679.8378924740401 436.87670734639033 L 662 424 L 665.508087646483 445.7185018144575 L 679.8378924740401 436.87670734639033" stroke-miterlimit="10"/></g><g transform="translate(-422,-198) scale(1,1)"><path fill="none" stroke="#000000" d="M 1009 296 L 1009 276 L 1008 276 L 1008 208 L 668 208 L 668 248" stroke-miterlimit="10" stroke-dasharray="3"/></g><g transform="translate(-422,-198) scale(1,1)"><path fill="none" stroke="#000000" d="M 663.790482243984 237.83732514237585 L 668 248 L 672.209517756016 237.83732514237585" stroke-miterlimit="10"/></g></g></svg>