<svg version="1.1" xmlns="http://www.w3.org/2000/svg" xmlns:xlink="http://www.w3.org/1999/xlink" width="342.708984375" height="289"><defs/><g><g transform="translate(-10,-10) scale(1,1)"><rect fill="#C0C0C0" stroke="none" x="56.253173828125" y="44.5" width="40.7890625" height="24" opacity="0.2"/></g><g transform="translate(-10,-10) scale(1,1)"><rect fill="#ffffff" stroke="none" x="49.253173828125" y="37.5" width="40.7890625" height="24"/></g><g transform="translate(-10,-10) scale(1,1)"><path fill="none" stroke="#000000" d="M 49.253173828125 37.5 L 90.042236328125 37.5 L 90.042236328125 61.5 L 49.253173828125 61.5 L 49.253173828125 37.5 Z Z" stroke-miterlimit="10"/></g><g transform="translate(-10,-10) scale(1,1)"><g><path fill="none" stroke="none"/><text fill="#000000" stroke="none" font-family="Arial" font-size="13px" font-style="italic" font-weight="bold" text-decoration="none" x="54.838623046875" y="57">Duck</text></g></g><g transform="translate(-10,-10) scale(1,1)"><path fill="#C0C0C0" stroke="none" d="M 66.601318359375 131.5 C 66.601318359375 125.1487248 71.750043159375 120 78.101318359375 120 C 84.452593559375 120 89.601318359375 125.1487248 89.601318359375 131.5 C 89.601318359375 137.8512752 84.452593559375 143 78.101318359375 143 C 71.750043159375 143 66.601318359375 137.8512752 66.601318359375 131.5 Z" opacity="0.2"/></g><g transform="translate(-10,-10) scale(1,1)"><path fill="#ffffff" stroke="none" d="M 59.601318359375 124.5 C 59.601318359375 118.1487248 64.750043159375 113 71.101318359375 113 C 77.452593559375 113 82.601318359375 118.1487248 82.601318359375 124.5 C 82.601318359375 130.8512752 77.452593559375 136 71.101318359375 136 C 64.750043159375 136 59.601318359375 130.8512752 59.601318359375 124.5 Z"/></g><g transform="translate(-10,-10) scale(1,1)"><path fill="none" stroke="#000000" d="M 59.601318359375 124.5 C 59.601318359375 118.1487248 64.750043159375 113 71.101318359375 113 C 77.452593559375 113 82.601318359375 118.1487248 82.601318359375 124.5 C 82.601318359375 130.8512752 77.452593559375 136 71.101318359375 136 C 64.750043159375 136 59.601318359375 130.8512752 59.601318359375 124.5 Z" stroke-miterlimit="10"/></g><g transform="translate(-10,-10) scale(1,1)"><g><path fill="none" stroke="none"/><text fill="#000000" stroke="none" font-family="Arial" font-size="13px" font-style="normal" font-weight="bold" text-decoration="none" x="36.78271484375" y="155.5">FlyBehavior</text></g></g><g transform="translate(-10,-10) scale(1,1)"><rect fill="#C0C0C0" stroke="none" x="247.369873046875" y="97" width="71.359375" height="24" opacity="0.2"/></g><g transform="translate(-10,-10) scale(1,1)"><rect fill="#ffffff" stroke="none" x="240.369873046875" y="90" width="71.359375" height="24"/></g><g transform="translate(-10,-10) scale(1,1)"><path fill="none" stroke="#000000" d="M 240.369873046875 90 L 311.729248046875 90 L 311.729248046875 114 L 240.369873046875 114 L 240.369873046875 90 Z Z" stroke-miterlimit="10"/></g><g transform="translate(-10,-10) scale(1,1)"><g><path fill="none" stroke="none"/><text fill="#000000" stroke="none" font-family="Arial" font-size="13px" font-style="normal" font-weight="bold" text-decoration="none" x="246.317138671875" y="109.5">FlyNoWay</text></g></g><g transform="translate(-10,-10) scale(1,1)"><rect fill="#C0C0C0" stroke="none" x="224.39453125" y="132" width="125.314453125" height="24" opacity="0.2"/></g><g transform="translate(-10,-10) scale(1,1)"><rect fill="#ffffff" stroke="none" x="217.39453125" y="125" width="125.314453125" height="24"/></g><g transform="translate(-10,-10) scale(1,1)"><path fill="none" stroke="#000000" d="M 217.39453125 125 L 342.708984375 125 L 342.708984375 149 L 217.39453125 149 L 217.39453125 125 Z Z" stroke-miterlimit="10"/></g><g transform="translate(-10,-10) scale(1,1)"><g><path fill="none" stroke="none"/><text fill="#000000" stroke="none" font-family="Arial" font-size="13px" font-style="normal" font-weight="bold" text-decoration="none" x="225.503173828125" y="144.5">FlyRocketPowered</text></g></g><g transform="translate(-10,-10) scale(1,1)"><rect fill="#C0C0C0" stroke="none" x="236.404296875" y="167" width="94.69970703125" height="24" opacity="0.2"/></g><g transform="translate(-10,-10) scale(1,1)"><rect fill="#ffffff" stroke="none" x="229.404296875" y="160" width="94.69970703125" height="24"/></g><g transform="translate(-10,-10) scale(1,1)"><path fill="none" stroke="#000000" d="M 229.404296875 160 L 324.10400390625 160 L 324.10400390625 184 L 229.404296875 184 L 229.404296875 160 Z Z" stroke-miterlimit="10"/></g><g transform="translate(-10,-10) scale(1,1)"><g><path fill="none" stroke="none"/><text fill="#000000" stroke="none" font-family="Arial" font-size="13px" font-style="normal" font-weight="bold" text-decoration="none" x="237.030517578125" y="179.5">FlyWithWings</text></g></g><g transform="translate(-10,-10) scale(1,1)"><rect fill="#C0C0C0" stroke="none" x="239.42578125" y="27" width="86.3017578125" height="24" opacity="0.2"/></g><g transform="translate(-10,-10) scale(1,1)"><rect fill="#ffffff" stroke="none" x="232.42578125" y="20" width="86.3017578125" height="24"/></g><g transform="translate(-10,-10) scale(1,1)"><path fill="none" stroke="#000000" d="M 232.42578125 20 L 318.7275390625 20 L 318.7275390625 44 L 232.42578125 44 L 232.42578125 20 Z Z" stroke-miterlimit="10"/></g><g transform="translate(-10,-10) scale(1,1)"><g><path fill="none" stroke="none"/><text fill="#000000" stroke="none" font-family="Arial" font-size="13px" font-style="normal" font-weight="bold" text-decoration="none" x="239.455322265625" y="39.5">MallardDuck</text></g></g><g transform="translate(-10,-10) scale(1,1)"><rect fill="#C0C0C0" stroke="none" x="244.481689453125" y="62" width="78.341796875" height="24" opacity="0.2"/></g><g transform="translate(-10,-10) scale(1,1)"><rect fill="#ffffff" stroke="none" x="237.481689453125" y="55" width="78.341796875" height="24"/></g><g transform="translate(-10,-10) scale(1,1)"><path fill="none" stroke="#000000" d="M 237.481689453125 55 L 315.823486328125 55 L 315.823486328125 79 L 237.481689453125 79 L 237.481689453125 55 Z Z" stroke-miterlimit="10"/></g><g transform="translate(-10,-10) scale(1,1)"><g><path fill="none" stroke="none"/><text fill="#000000" stroke="none" font-family="Arial" font-size="13px" font-style="normal" font-weight="bold" text-decoration="none" x="244.139892578125" y="74.5">ModelDuck</text></g></g><g transform="translate(-10,-10) scale(1,1)"><rect fill="#C0C0C0" stroke="none" x="243.76123046875" y="202" width="79.07177734375" height="24" opacity="0.2"/></g><g transform="translate(-10,-10) scale(1,1)"><rect fill="#ffffff" stroke="none" x="236.76123046875" y="195" width="79.07177734375" height="24"/></g><g transform="translate(-10,-10) scale(1,1)"><path fill="none" stroke="#000000" d="M 236.76123046875 195 L 315.8330078125 195 L 315.8330078125 219 L 236.76123046875 219 L 236.76123046875 195 Z Z" stroke-miterlimit="10"/></g><g transform="translate(-10,-10) scale(1,1)"><g><path fill="none" stroke="none"/><text fill="#000000" stroke="none" font-family="Arial" font-size="13px" font-style="normal" font-weight="bold" text-decoration="none" x="243.060791015625" y="214.5">MuteQuack</text></g></g><g transform="translate(-10,-10) scale(1,1)"><rect fill="#C0C0C0" stroke="none" x="258.560791015625" y="237" width="48.74267578125" height="24" opacity="0.2"/></g><g transform="translate(-10,-10) scale(1,1)"><rect fill="#ffffff" stroke="none" x="251.560791015625" y="230" width="48.74267578125" height="24"/></g><g transform="translate(-10,-10) scale(1,1)"><path fill="none" stroke="#000000" d="M 251.560791015625 230 L 300.303466796875 230 L 300.303466796875 254 L 251.560791015625 254 L 251.560791015625 230 Z Z" stroke-miterlimit="10"/></g><g transform="translate(-10,-10) scale(1,1)"><g><path fill="none" stroke="none"/><text fill="#000000" stroke="none" font-family="Arial" font-size="13px" font-style="normal" font-weight="bold" text-decoration="none" x="257.146240234375" y="249.5">Quack</text></g></g><g transform="translate(-10,-10) scale(1,1)"><path fill="#C0C0C0" stroke="none" d="M 67.686767578125 236.5 C 67.686767578125 230.1487248 72.835492378125 225 79.186767578125 225 C 85.538042778125 225 90.686767578125 230.1487248 90.686767578125 236.5 C 90.686767578125 242.8512752 85.538042778125 248 79.186767578125 248 C 72.835492378125 248 67.686767578125 242.8512752 67.686767578125 236.5 Z" opacity="0.2"/></g><g transform="translate(-10,-10) scale(1,1)"><path fill="#ffffff" stroke="none" d="M 60.686767578125 229.5 C 60.686767578125 223.1487248 65.835492378125 218 72.186767578125 218 C 78.538042778125 218 83.686767578125 223.1487248 83.686767578125 229.5 C 83.686767578125 235.8512752 78.538042778125 241 72.186767578125 241 C 65.835492378125 241 60.686767578125 235.8512752 60.686767578125 229.5 Z"/></g><g transform="translate(-10,-10) scale(1,1)"><path fill="none" stroke="#000000" d="M 60.686767578125 229.5 C 60.686767578125 223.1487248 65.835492378125 218 72.186767578125 218 C 78.538042778125 218 83.686767578125 223.1487248 83.686767578125 229.5 C 83.686767578125 235.8512752 78.538042778125 241 72.186767578125 241 C 65.835492378125 241 60.686767578125 235.8512752 60.686767578125 229.5 Z" stroke-miterlimit="10"/></g><g transform="translate(-10,-10) scale(1,1)"><g><path fill="none" stroke="none"/><text fill="#000000" stroke="none" font-family="Arial" font-size="13px" font-style="normal" font-weight="bold" text-decoration="none" x="27.746826171875" y="260.5">QuackBehavior</text></g></g><g transform="translate(-10,-10) scale(1,1)"><rect fill="#C0C0C0" stroke="none" x="256.38671875" y="272" width="55.24267578125" height="24" opacity="0.2"/></g><g transform="translate(-10,-10) scale(1,1)"><rect fill="#ffffff" stroke="none" x="249.38671875" y="265" width="55.24267578125" height="24"/></g><g transform="translate(-10,-10) scale(1,1)"><path fill="none" stroke="#000000" d="M 249.38671875 265 L 304.62939453125 265 L 304.62939453125 289 L 249.38671875 289 L 249.38671875 265 Z Z" stroke-miterlimit="10"/></g><g transform="translate(-10,-10) scale(1,1)"><g><path fill="none" stroke="none"/><text fill="#000000" stroke="none" font-family="Arial" font-size="13px" font-style="normal" font-weight="bold" text-decoration="none" x="254.962646484375" y="284.5">Squeak</text></g></g><g transform="translate(-10,-10) scale(1,1)"><path fill="none" stroke="#000000" d="M 231 32 Q 167 33 91 45" stroke-miterlimit="10"/></g><g transform="translate(-10,-10) scale(1,1)"><path fill="#FFFFFF" stroke="none" d="M 109.76357326146685 33.5139946690955 L 91 45 L 112.38968215070119 50.146017634246384"/></g><g transform="translate(-10,-10) scale(1,1)"><path fill="none" stroke="#000000" d="M 109.76357326146685 33.5139946690955 L 91 45 L 112.38968215070119 50.146017634246384 L 109.76357326146685 33.5139946690955" stroke-miterlimit="10"/></g><g transform="translate(-10,-10) scale(1,1)"><path fill="none" stroke="#000000" d="M 236 67 Q 167 68 91 53" stroke-miterlimit="10"/></g><g transform="translate(-10,-10) scale(1,1)"><path fill="#FFFFFF" stroke="none" d="M 112.5708760931059 48.675962005732075 L 91 53 L 109.31046934942509 65.19535617371483"/></g><g transform="translate(-10,-10) scale(1,1)"><path fill="none" stroke="#000000" d="M 112.5708760931059 48.675962005732075 L 91 53 L 109.31046934942509 65.19535617371483 L 112.5708760931059 48.675962005732075" stroke-miterlimit="10"/></g><g transform="translate(-10,-10) scale(1,1)"><path fill="none" stroke="#000000" d="M 239 102 Q 167 103 82.601318359375 123.46040379723837" stroke-miterlimit="10"/></g><g transform="translate(-10,-10) scale(1,1)"><path fill="none" stroke="#000000" d="M 216 138 Q 167 138 82.601318359375 127.50737531795058" stroke-miterlimit="10"/></g><g transform="translate(-10,-10) scale(1,1)"><path fill="none" stroke="#000000" d="M 228 172 Q 167 173 82.601318359375 131.8241449400436" stroke-miterlimit="10"/></g><g transform="translate(-10,-10) scale(1,1)"><path fill="none" stroke="#000000" d="M 236 207 Q 167 208 83.686767578125 227.6769697081368" stroke-miterlimit="10"/></g><g transform="translate(-10,-10) scale(1,1)"><path fill="none" stroke="#000000" d="M 251 242 Q 167 243 83.686767578125 232.08707068101415" stroke-miterlimit="10"/></g><g transform="translate(-10,-10) scale(1,1)"><path fill="none" stroke="#000000" d="M 248 277 Q 167 278 83.686767578125 236.27666660524764" stroke-miterlimit="10"/></g></g></svg>