<svg version="1.1" xmlns="http://www.w3.org/2000/svg" xmlns:xlink="http://www.w3.org/1999/xlink" width="771.1060791015625" height="178"><defs/><g><g transform="translate(-10,-10) scale(1,1)"><rect fill="#C0C0C0" stroke="none" x="105.1397705078125" y="106" width="40.7890625" height="24" opacity="0.2"/></g><g transform="translate(-10,-10) scale(1,1)"><rect fill="#ffffff" stroke="none" x="98.1397705078125" y="99" width="40.7890625" height="24"/></g><g transform="translate(-10,-10) scale(1,1)"><path fill="none" stroke="#000000" d="M 98.1397705078125 99 L 138.9288330078125 99 L 138.9288330078125 123 L 98.1397705078125 123 L 98.1397705078125 99 Z Z" stroke-miterlimit="10"/></g><g transform="translate(-10,-10) scale(1,1)"><g><path fill="none" stroke="none"/><text fill="#000000" stroke="none" font-family="Arial" font-size="13px" font-style="italic" font-weight="bold" text-decoration="none" x="103.7252197265625" y="118.5">Duck</text></g></g><g transform="translate(-10,-10) scale(1,1)"><path fill="#C0C0C0" stroke="none" d="M 260.643310546875 38.5 C 260.643310546875 32.1487248 265.792035346875 27 272.143310546875 27 C 278.494585746875 27 283.643310546875 32.1487248 283.643310546875 38.5 C 283.643310546875 44.8512752 278.494585746875 50 272.143310546875 50 C 265.792035346875 50 260.643310546875 44.8512752 260.643310546875 38.5 Z" opacity="0.2"/></g><g transform="translate(-10,-10) scale(1,1)"><path fill="#ffffff" stroke="none" d="M 253.643310546875 31.5 C 253.643310546875 25.1487248 258.792035346875 20 265.143310546875 20 C 271.494585746875 20 276.643310546875 25.1487248 276.643310546875 31.5 C 276.643310546875 37.8512752 271.494585746875 43 265.143310546875 43 C 258.792035346875 43 253.643310546875 37.8512752 253.643310546875 31.5 Z"/></g><g transform="translate(-10,-10) scale(1,1)"><path fill="none" stroke="#000000" d="M 253.643310546875 31.5 C 253.643310546875 25.1487248 258.792035346875 20 265.143310546875 20 C 271.494585746875 20 276.643310546875 25.1487248 276.643310546875 31.5 C 276.643310546875 37.8512752 271.494585746875 43 265.143310546875 43 C 258.792035346875 43 253.643310546875 37.8512752 253.643310546875 31.5 Z" stroke-miterlimit="10"/></g><g transform="translate(-10,-10) scale(1,1)"><g><path fill="none" stroke="none"/><text fill="#000000" stroke="none" font-family="Arial" font-size="13px" font-style="normal" font-weight="bold" text-decoration="none" x="230.82470703125" y="62.5">FlyBehavior</text></g></g><g transform="translate(-10,-10) scale(1,1)"><rect fill="#C0C0C0" stroke="none" x="174.0279541015625" y="106" width="71.359375" height="24" opacity="0.2"/></g><g transform="translate(-10,-10) scale(1,1)"><rect fill="#ffffff" stroke="none" x="167.0279541015625" y="99" width="71.359375" height="24"/></g><g transform="translate(-10,-10) scale(1,1)"><path fill="none" stroke="#000000" d="M 167.0279541015625 99 L 238.3873291015625 99 L 238.3873291015625 123 L 167.0279541015625 123 L 167.0279541015625 99 Z Z" stroke-miterlimit="10"/></g><g transform="translate(-10,-10) scale(1,1)"><g><path fill="none" stroke="none"/><text fill="#000000" stroke="none" font-family="Arial" font-size="13px" font-style="normal" font-weight="bold" text-decoration="none" x="172.9752197265625" y="118.5">FlyNoWay</text></g></g><g transform="translate(-10,-10) scale(1,1)"><rect fill="#C0C0C0" stroke="none" x="273.2515869140625" y="106" width="125.314453125" height="24" opacity="0.2"/></g><g transform="translate(-10,-10) scale(1,1)"><rect fill="#ffffff" stroke="none" x="266.2515869140625" y="99" width="125.314453125" height="24"/></g><g transform="translate(-10,-10) scale(1,1)"><path fill="none" stroke="#000000" d="M 266.2515869140625 99 L 391.5660400390625 99 L 391.5660400390625 123 L 266.2515869140625 123 L 266.2515869140625 99 Z Z" stroke-miterlimit="10"/></g><g transform="translate(-10,-10) scale(1,1)"><g><path fill="none" stroke="none"/><text fill="#000000" stroke="none" font-family="Arial" font-size="13px" font-style="normal" font-weight="bold" text-decoration="none" x="274.3602294921875" y="118.5">FlyRocketPowered</text></g></g><g transform="translate(-10,-10) scale(1,1)"><rect fill="#C0C0C0" stroke="none" x="418.4259033203125" y="106" width="94.69970703125" height="24" opacity="0.2"/></g><g transform="translate(-10,-10) scale(1,1)"><rect fill="#ffffff" stroke="none" x="411.4259033203125" y="99" width="94.69970703125" height="24"/></g><g transform="translate(-10,-10) scale(1,1)"><path fill="none" stroke="#000000" d="M 411.4259033203125 99 L 506.1256103515625 99 L 506.1256103515625 123 L 411.4259033203125 123 L 411.4259033203125 99 Z Z" stroke-miterlimit="10"/></g><g transform="translate(-10,-10) scale(1,1)"><g><path fill="none" stroke="none"/><text fill="#000000" stroke="none" font-family="Arial" font-size="13px" font-style="normal" font-weight="bold" text-decoration="none" x="419.0521240234375" y="118.5">FlyWithWings</text></g></g><g transform="translate(-10,-10) scale(1,1)"><rect fill="#C0C0C0" stroke="none" x="27" y="161" width="86.3017578125" height="24" opacity="0.2"/></g><g transform="translate(-10,-10) scale(1,1)"><rect fill="#ffffff" stroke="none" x="20" y="154" width="86.3017578125" height="24"/></g><g transform="translate(-10,-10) scale(1,1)"><path fill="none" stroke="#000000" d="M 20 154 L 106.3017578125 154 L 106.3017578125 178 L 20 178 L 20 154 Z Z" stroke-miterlimit="10"/></g><g transform="translate(-10,-10) scale(1,1)"><g><path fill="none" stroke="none"/><text fill="#000000" stroke="none" font-family="Arial" font-size="13px" font-style="normal" font-weight="bold" text-decoration="none" x="27.029541015625" y="173.5">MallardDuck</text></g></g><g transform="translate(-10,-10) scale(1,1)"><rect fill="#C0C0C0" stroke="none" x="142.11181640625" y="161" width="78.341796875" height="24" opacity="0.2"/></g><g transform="translate(-10,-10) scale(1,1)"><rect fill="#ffffff" stroke="none" x="135.11181640625" y="154" width="78.341796875" height="24"/></g><g transform="translate(-10,-10) scale(1,1)"><path fill="none" stroke="#000000" d="M 135.11181640625 154 L 213.45361328125 154 L 213.45361328125 178 L 135.11181640625 178 L 135.11181640625 154 Z Z" stroke-miterlimit="10"/></g><g transform="translate(-10,-10) scale(1,1)"><g><path fill="none" stroke="none"/><text fill="#000000" stroke="none" font-family="Arial" font-size="13px" font-style="normal" font-weight="bold" text-decoration="none" x="141.77001953125" y="173.5">ModelDuck</text></g></g><g transform="translate(-10,-10) scale(1,1)"><rect fill="#C0C0C0" stroke="none" x="539.5806884765625" y="106" width="79.07177734375" height="24" opacity="0.2"/></g><g transform="translate(-10,-10) scale(1,1)"><rect fill="#ffffff" stroke="none" x="532.5806884765625" y="99" width="79.07177734375" height="24"/></g><g transform="translate(-10,-10) scale(1,1)"><path fill="none" stroke="#000000" d="M 532.5806884765625 99 L 611.6524658203125 99 L 611.6524658203125 123 L 532.5806884765625 123 L 532.5806884765625 99 Z Z" stroke-miterlimit="10"/></g><g transform="translate(-10,-10) scale(1,1)"><g><path fill="none" stroke="none"/><text fill="#000000" stroke="none" font-family="Arial" font-size="13px" font-style="normal" font-weight="bold" text-decoration="none" x="538.8802490234375" y="118.5">MuteQuack</text></g></g><g transform="translate(-10,-10) scale(1,1)"><rect fill="#C0C0C0" stroke="none" x="646.0216064453125" y="106" width="48.74267578125" height="24" opacity="0.2"/></g><g transform="translate(-10,-10) scale(1,1)"><rect fill="#ffffff" stroke="none" x="639.0216064453125" y="99" width="48.74267578125" height="24"/></g><g transform="translate(-10,-10) scale(1,1)"><path fill="none" stroke="#000000" d="M 639.0216064453125 99 L 687.7642822265625 99 L 687.7642822265625 123 L 639.0216064453125 123 L 639.0216064453125 99 Z Z" stroke-miterlimit="10"/></g><g transform="translate(-10,-10) scale(1,1)"><g><path fill="none" stroke="none"/><text fill="#000000" stroke="none" font-family="Arial" font-size="13px" font-style="normal" font-weight="bold" text-decoration="none" x="644.6070556640625" y="118.5">Quack</text></g></g><g transform="translate(-10,-10) scale(1,1)"><path fill="#C0C0C0" stroke="none" d="M 615.611328125 38.5 C 615.611328125 32.1487248 620.760052925 27 627.111328125 27 C 633.462603325 27 638.611328125 32.1487248 638.611328125 38.5 C 638.611328125 44.8512752 633.462603325 50 627.111328125 50 C 620.760052925 50 615.611328125 44.8512752 615.611328125 38.5 Z" opacity="0.2"/></g><g transform="translate(-10,-10) scale(1,1)"><path fill="#ffffff" stroke="none" d="M 608.611328125 31.5 C 608.611328125 25.1487248 613.760052925 20 620.111328125 20 C 626.462603325 20 631.611328125 25.1487248 631.611328125 31.5 C 631.611328125 37.8512752 626.462603325 43 620.111328125 43 C 613.760052925 43 608.611328125 37.8512752 608.611328125 31.5 Z"/></g><g transform="translate(-10,-10) scale(1,1)"><path fill="none" stroke="#000000" d="M 608.611328125 31.5 C 608.611328125 25.1487248 613.760052925 20 620.111328125 20 C 626.462603325 20 631.611328125 25.1487248 631.611328125 31.5 C 631.611328125 37.8512752 626.462603325 43 620.111328125 43 C 613.760052925 43 608.611328125 37.8512752 608.611328125 31.5 Z" stroke-miterlimit="10"/></g><g transform="translate(-10,-10) scale(1,1)"><g><path fill="none" stroke="none"/><text fill="#000000" stroke="none" font-family="Arial" font-size="13px" font-style="normal" font-weight="bold" text-decoration="none" x="575.67138671875" y="62.5">QuackBehavior</text></g></g><g transform="translate(-10,-10) scale(1,1)"><rect fill="#C0C0C0" stroke="none" x="722.8634033203125" y="106" width="55.24267578125" height="24" opacity="0.2"/></g><g transform="translate(-10,-10) scale(1,1)"><rect fill="#ffffff" stroke="none" x="715.8634033203125" y="99" width="55.24267578125" height="24"/></g><g transform="translate(-10,-10) scale(1,1)"><path fill="none" stroke="#000000" d="M 715.8634033203125 99 L 771.1060791015625 99 L 771.1060791015625 123 L 715.8634033203125 123 L 715.8634033203125 99 Z Z" stroke-miterlimit="10"/></g><g transform="translate(-10,-10) scale(1,1)"><g><path fill="none" stroke="none"/><text fill="#000000" stroke="none" font-family="Arial" font-size="13px" font-style="normal" font-weight="bold" text-decoration="none" x="721.4393310546875" y="118.5">Squeak</text></g></g><g transform="translate(-10,-10) scale(1,1)"><path fill="none" stroke="#000000" d="M 111 98 Q 103 84 222 55" stroke-miterlimit="10"/></g><g transform="translate(-10,-10) scale(1,1)"><path fill="none" stroke="#000000" d="M 213.122969033877 61.49602349337605 L 222 55 L 211.12960894413814 53.316373469964795" stroke-miterlimit="10"/></g><g transform="translate(-10,-10) scale(1,1)"><g><path fill="none" stroke="none"/><text fill="#000000" stroke="none" font-family="Arial" font-size="13px" font-style="normal" font-weight="normal" text-decoration="none" x="157.5" y="52.5">~flyBehavior</text></g></g><g transform="translate(-10,-10) scale(1,1)"><path fill="none" stroke="#000000" d="M 131 98 Q 145 84 567 48" stroke-miterlimit="10"/></g><g transform="translate(-10,-10) scale(1,1)"><path fill="none" stroke="#000000" d="M 557.2319099547705 53.05810407843569 L 567 48 L 556.5162975959681 44.6695369835866" stroke-miterlimit="10"/></g><g transform="translate(-10,-10) scale(1,1)"><g><path fill="none" stroke="none"/><text fill="#000000" stroke="none" font-family="Arial" font-size="13px" font-style="normal" font-weight="normal" text-decoration="none" x="492.5" y="41.5">~quackBehavior</text></g></g><g transform="translate(-10,-10) scale(1,1)"><path fill="none" stroke="#000000" d="M 63 153 Q 63 139 97 122" stroke-miterlimit="10"/></g><g transform="translate(-10,-10) scale(1,1)"><path fill="#FFFFFF" stroke="none" d="M 82.58556169007717 138.61998700990554 L 97 122 L 75.05534740612187 123.55955844199495"/></g><g transform="translate(-10,-10) scale(1,1)"><path fill="none" stroke="#000000" d="M 82.58556169007717 138.61998700990554 L 97 122 L 75.05534740612187 123.55955844199495 L 82.58556169007717 138.61998700990554" stroke-miterlimit="10"/></g><g transform="translate(-10,-10) scale(1,1)"><path fill="none" stroke="#000000" d="M 174 153 Q 173 139 140 122" stroke-miterlimit="10"/></g><g transform="translate(-10,-10) scale(1,1)"><path fill="#FFFFFF" stroke="none" d="M 161.9242715387655 123.82381947968439 L 140 122 L 154.21316595589136 138.79243619938129"/></g><g transform="translate(-10,-10) scale(1,1)"><path fill="none" stroke="#000000" d="M 161.9242715387655 123.82381947968439 L 140 122 L 154.21316595589136 138.79243619938129 L 161.9242715387655 123.82381947968439" stroke-miterlimit="10"/></g><g transform="translate(-10,-10) scale(1,1)"><path fill="none" stroke="#000000" d="M 202 98 Q 202 84 253.643310546875 42.065492287660255" stroke-miterlimit="10"/></g><g transform="translate(-10,-10) scale(1,1)"><path fill="none" stroke="#000000" d="M 326 98 Q 324 84 276.643310546875 42.95799461570946" stroke-miterlimit="10"/></g><g transform="translate(-10,-10) scale(1,1)"><path fill="none" stroke="#000000" d="M 458 98 Q 457 84 276.643310546875 36.95704260537791" stroke-miterlimit="10"/></g><g transform="translate(-10,-10) scale(1,1)"><path fill="none" stroke="#000000" d="M 572 98 Q 571 84 610.2105263157895 43" stroke-miterlimit="10"/></g><g transform="translate(-10,-10) scale(1,1)"><path fill="none" stroke="#000000" d="M 663 98 Q 662 84 628.2105263157895 43" stroke-miterlimit="10"/></g><g transform="translate(-10,-10) scale(1,1)"><path fill="none" stroke="#000000" d="M 742 98 Q 741 84 631.611328125 37.79153154481132" stroke-miterlimit="10"/></g></g></svg>