<svg version="1.1" xmlns="http://www.w3.org/2000/svg" xmlns:xlink="http://www.w3.org/1999/xlink" width="737.314453125" height="397"><defs/><g><g transform="translate(-86,-94) scale(1,1)"><rect fill="#C0C0C0" stroke="none" x="583" y="303" width="136" height="70" opacity="0.2"/></g><g transform="translate(-86,-94) scale(1,1)"><rect fill="#ffffff" stroke="none" x="576" y="296" width="136" height="70"/></g><g transform="translate(-86,-94) scale(1,1)"><path fill="none" stroke="#000000" d="M 576 296 L 712 296 L 712 366 L 576 366 L 576 296 Z Z" stroke-miterlimit="10"/></g><g transform="translate(-86,-94) scale(1,1)"><path fill="none" stroke="#000000" d="M 576 334 L 712 334" stroke-miterlimit="10"/></g><g transform="translate(-86,-94) scale(1,1)"><path fill="none" stroke="#000000" d="M 576 357 L 712 357" stroke-miterlimit="10"/></g><g transform="translate(-86,-94) scale(1,1)"><g><path fill="none" stroke="none"/><text fill="#000000" stroke="none" font-family="Arial" font-size="13px" font-style="normal" font-weight="normal" text-decoration="none" x="611.839599609375" y="313.5">«interface»</text></g></g><g transform="translate(-86,-94) scale(1,1)"><g><path fill="none" stroke="none"/><text fill="#000000" stroke="none" font-family="Arial" font-size="13px" font-style="normal" font-weight="bold" text-decoration="none" x="609.681396484375" y="328.5">FlyBehavior</text></g></g><g transform="translate(-86,-94) scale(1,1)"><g><path fill="none" stroke="none"/><text fill="#000000" stroke="none" font-family="Arial" font-size="13px" font-style="normal" font-weight="normal" text-decoration="none" x="581" y="351.5">+fly()</text></g></g><g transform="translate(-86,-94) scale(1,1)"><rect fill="#C0C0C0" stroke="none" x="479" y="431" width="89.57080078125" height="57" opacity="0.2"/></g><g transform="translate(-86,-94) scale(1,1)"><rect fill="#ffffff" stroke="none" x="472" y="424" width="89.57080078125" height="57"/></g><g transform="translate(-86,-94) scale(1,1)"><path fill="none" stroke="#000000" d="M 472 424 L 561.57080078125 424 L 561.57080078125 481 L 472 481 L 472 424 Z Z" stroke-miterlimit="10"/></g><g transform="translate(-86,-94) scale(1,1)"><path fill="none" stroke="#000000" d="M 472 449 L 561.57080078125 449" stroke-miterlimit="10"/></g><g transform="translate(-86,-94) scale(1,1)"><path fill="none" stroke="#000000" d="M 472 459 L 561.57080078125 459" stroke-miterlimit="10"/></g><g transform="translate(-86,-94) scale(1,1)"><g><path fill="none" stroke="none"/><text fill="#000000" stroke="none" font-family="Arial" font-size="13px" font-style="normal" font-weight="bold" text-decoration="none" x="487.052978515625" y="443.5">FlyNoWay</text></g></g><g transform="translate(-86,-94) scale(1,1)"><g><path fill="none" stroke="none"/><text fill="#000000" stroke="none" font-family="Arial" font-size="13px" font-style="normal" font-weight="normal" text-decoration="none" x="477" y="476.5">+fly()</text></g></g><g transform="translate(-86,-94) scale(1,1)"><path fill="none" stroke="#000000" d="M 547 423 L 606 367" stroke-miterlimit="10" stroke-dasharray="3"/></g><g transform="translate(-86,-94) scale(1,1)"><path fill="#FFFFFF" stroke="none" d="M 597.0537815378331 387.0988849249699 L 606 367 L 585.4620104346911 374.88612608415974"/></g><g transform="translate(-86,-94) scale(1,1)"><path fill="none" stroke="#000000" d="M 597.0537815378331 387.0988849249699 L 606 367 L 585.4620104346911 374.88612608415974 L 597.0537815378331 387.0988849249699" stroke-miterlimit="10"/></g><g transform="translate(-86,-94) scale(1,1)"><rect fill="#C0C0C0" stroke="none" x="586.57080078125" y="431" width="94.69970703125" height="57" opacity="0.2"/></g><g transform="translate(-86,-94) scale(1,1)"><rect fill="#ffffff" stroke="none" x="579.57080078125" y="424" width="94.69970703125" height="57"/></g><g transform="translate(-86,-94) scale(1,1)"><path fill="none" stroke="#000000" d="M 579.57080078125 424 L 674.2705078125 424 L 674.2705078125 481 L 579.57080078125 481 L 579.57080078125 424 Z Z" stroke-miterlimit="10"/></g><g transform="translate(-86,-94) scale(1,1)"><path fill="none" stroke="#000000" d="M 579.57080078125 449 L 674.2705078125 449" stroke-miterlimit="10"/></g><g transform="translate(-86,-94) scale(1,1)"><path fill="none" stroke="#000000" d="M 579.57080078125 459 L 674.2705078125 459" stroke-miterlimit="10"/></g><g transform="translate(-86,-94) scale(1,1)"><g><path fill="none" stroke="none"/><text fill="#000000" stroke="none" font-family="Arial" font-size="13px" font-style="normal" font-weight="bold" text-decoration="none" x="587.197021484375" y="443.5">FlyWithWings</text></g></g><g transform="translate(-86,-94) scale(1,1)"><g><path fill="none" stroke="none"/><text fill="#000000" stroke="none" font-family="Arial" font-size="13px" font-style="normal" font-weight="normal" text-decoration="none" x="584.57080078125" y="476.5">+fly()</text></g></g><g transform="translate(-86,-94) scale(1,1)"><path fill="none" stroke="#000000" d="M 630 423 L 639 367" stroke-miterlimit="10" stroke-dasharray="3"/></g><g transform="translate(-86,-94) scale(1,1)"><path fill="#FFFFFF" stroke="none" d="M 644.0871816770618 388.40375160070226 L 639 367 L 627.4624427612894 385.7319185606674"/></g><g transform="translate(-86,-94) scale(1,1)"><path fill="none" stroke="#000000" d="M 644.0871816770618 388.40375160070226 L 639 367 L 627.4624427612894 385.7319185606674 L 644.0871816770618 388.40375160070226" stroke-miterlimit="10"/></g><g transform="translate(-86,-94) scale(1,1)"><rect fill="#C0C0C0" stroke="none" x="695" y="423" width="125.314453125" height="57" opacity="0.2"/></g><g transform="translate(-86,-94) scale(1,1)"><rect fill="#ffffff" stroke="none" x="688" y="416" width="125.314453125" height="57"/></g><g transform="translate(-86,-94) scale(1,1)"><path fill="none" stroke="#000000" d="M 688 416 L 813.314453125 416 L 813.314453125 473 L 688 473 L 688 416 Z Z" stroke-miterlimit="10"/></g><g transform="translate(-86,-94) scale(1,1)"><path fill="none" stroke="#000000" d="M 688 441 L 813.314453125 441" stroke-miterlimit="10"/></g><g transform="translate(-86,-94) scale(1,1)"><path fill="none" stroke="#000000" d="M 688 451 L 813.314453125 451" stroke-miterlimit="10"/></g><g transform="translate(-86,-94) scale(1,1)"><g><path fill="none" stroke="none"/><text fill="#000000" stroke="none" font-family="Arial" font-size="13px" font-style="normal" font-weight="bold" text-decoration="none" x="696.108642578125" y="435.5">FlyRocketPowered</text></g></g><g transform="translate(-86,-94) scale(1,1)"><g><path fill="none" stroke="none"/><text fill="#000000" stroke="none" font-family="Arial" font-size="13px" font-style="normal" font-weight="normal" text-decoration="none" x="693" y="468.5">+fly()</text></g></g><g transform="translate(-86,-94) scale(1,1)"><path fill="none" stroke="#000000" d="M 723 415 L 678 367" stroke-miterlimit="10" stroke-dasharray="3"/></g><g transform="translate(-86,-94) scale(1,1)"><path fill="#FFFFFF" stroke="none" d="M 698.0433422581586 376.06997415224055 L 678 367 L 685.7593430001508 387.58622345662286"/></g><g transform="translate(-86,-94) scale(1,1)"><path fill="none" stroke="#000000" d="M 698.0433422581586 376.06997415224055 L 678 367 L 685.7593430001508 387.58622345662286 L 698.0433422581586 376.06997415224055" stroke-miterlimit="10"/></g><g transform="translate(-86,-94) scale(1,1)"><rect fill="#C0C0C0" stroke="none" x="583" y="111" width="138.37353515625" height="60" opacity="0.2"/></g><g transform="translate(-86,-94) scale(1,1)"><rect fill="#ffffff" stroke="none" x="576" y="104" width="138.37353515625" height="60"/></g><g transform="translate(-86,-94) scale(1,1)"><path fill="none" stroke="#000000" d="M 576 104 L 714.37353515625 104 L 714.37353515625 164 L 576 164 L 576 104 Z Z" stroke-miterlimit="10"/></g><g transform="translate(-86,-94) scale(1,1)"><path fill="none" stroke="#000000" d="M 576 142 L 714.37353515625 142" stroke-miterlimit="10"/></g><g transform="translate(-86,-94) scale(1,1)"><g><path fill="none" stroke="none"/><text fill="#000000" stroke="none" font-family="Arial" font-size="13px" font-style="normal" font-weight="normal" text-decoration="none" x="613.0263671875" y="121.5">«interface»</text></g></g><g transform="translate(-86,-94) scale(1,1)"><g><path fill="none" stroke="none"/><text fill="#000000" stroke="none" font-family="Arial" font-size="13px" font-style="normal" font-weight="bold" text-decoration="none" x="600.746826171875" y="136.5">QuackBehavior</text></g></g><g transform="translate(-86,-94) scale(1,1)"><g><path fill="none" stroke="none"/><text fill="#000000" stroke="none" font-family="Arial" font-size="13px" font-style="normal" font-weight="normal" text-decoration="none" x="581" y="159.5">+quack()</text></g></g><g transform="translate(-86,-94) scale(1,1)"><rect fill="#C0C0C0" stroke="none" x="487" y="215" width="89.57080078125" height="57" opacity="0.2"/></g><g transform="translate(-86,-94) scale(1,1)"><rect fill="#ffffff" stroke="none" x="480" y="208" width="89.57080078125" height="57"/></g><g transform="translate(-86,-94) scale(1,1)"><path fill="none" stroke="#000000" d="M 480 208 L 569.57080078125 208 L 569.57080078125 265 L 480 265 L 480 208 Z Z" stroke-miterlimit="10"/></g><g transform="translate(-86,-94) scale(1,1)"><path fill="none" stroke="#000000" d="M 480 233 L 569.57080078125 233" stroke-miterlimit="10"/></g><g transform="translate(-86,-94) scale(1,1)"><path fill="none" stroke="#000000" d="M 480 243 L 569.57080078125 243" stroke-miterlimit="10"/></g><g transform="translate(-86,-94) scale(1,1)"><g><path fill="none" stroke="none"/><text fill="#000000" stroke="none" font-family="Arial" font-size="13px" font-style="normal" font-weight="bold" text-decoration="none" x="502.739990234375" y="227.5">Squeak</text></g></g><g transform="translate(-86,-94) scale(1,1)"><g><path fill="none" stroke="none"/><text fill="#000000" stroke="none" font-family="Arial" font-size="13px" font-style="normal" font-weight="normal" text-decoration="none" x="485" y="260.5">+quack()</text></g></g><g transform="translate(-86,-94) scale(1,1)"><path fill="none" stroke="#000000" d="M 558 207 L 608 165" stroke-miterlimit="10" stroke-dasharray="3"/></g><g transform="translate(-86,-94) scale(1,1)"><path fill="#FFFFFF" stroke="none" d="M 597.8518378611398 184.5196005390326 L 608 165 L 587.0217238278287 171.62660764223386"/></g><g transform="translate(-86,-94) scale(1,1)"><path fill="none" stroke="#000000" d="M 597.8518378611398 184.5196005390326 L 608 165 L 587.0217238278287 171.62660764223386 L 597.8518378611398 184.5196005390326" stroke-miterlimit="10"/></g><g transform="translate(-86,-94) scale(1,1)"><rect fill="#C0C0C0" stroke="none" x="599" y="231" width="89.57080078125" height="57" opacity="0.2"/></g><g transform="translate(-86,-94) scale(1,1)"><rect fill="#ffffff" stroke="none" x="592" y="224" width="89.57080078125" height="57"/></g><g transform="translate(-86,-94) scale(1,1)"><path fill="none" stroke="#000000" d="M 592 224 L 681.57080078125 224 L 681.57080078125 281 L 592 281 L 592 224 Z Z" stroke-miterlimit="10"/></g><g transform="translate(-86,-94) scale(1,1)"><path fill="none" stroke="#000000" d="M 592 249 L 681.57080078125 249" stroke-miterlimit="10"/></g><g transform="translate(-86,-94) scale(1,1)"><path fill="none" stroke="#000000" d="M 592 259 L 681.57080078125 259" stroke-miterlimit="10"/></g><g transform="translate(-86,-94) scale(1,1)"><g><path fill="none" stroke="none"/><text fill="#000000" stroke="none" font-family="Arial" font-size="13px" font-style="normal" font-weight="bold" text-decoration="none" x="603.549072265625" y="243.5">MuteQuack</text></g></g><g transform="translate(-86,-94) scale(1,1)"><g><path fill="none" stroke="none"/><text fill="#000000" stroke="none" font-family="Arial" font-size="13px" font-style="normal" font-weight="normal" text-decoration="none" x="597" y="276.5">+quack()</text></g></g><g transform="translate(-86,-94) scale(1,1)"><path fill="none" stroke="#000000" d="M 638 223 L 643 165" stroke-miterlimit="10" stroke-dasharray="3"/></g><g transform="translate(-86,-94) scale(1,1)"><path fill="#FFFFFF" stroke="none" d="M 649.6422146400839 185.97333985504108 L 643 165 L 632.8663641784703 184.52714584972955"/></g><g transform="translate(-86,-94) scale(1,1)"><path fill="none" stroke="#000000" d="M 649.6422146400839 185.97333985504108 L 643 165 L 632.8663641784703 184.52714584972955 L 649.6422146400839 185.97333985504108" stroke-miterlimit="10"/></g><g transform="translate(-86,-94) scale(1,1)"><rect fill="#C0C0C0" stroke="none" x="719" y="231" width="89.57080078125" height="57" opacity="0.2"/></g><g transform="translate(-86,-94) scale(1,1)"><rect fill="#ffffff" stroke="none" x="712" y="224" width="89.57080078125" height="57"/></g><g transform="translate(-86,-94) scale(1,1)"><path fill="none" stroke="#000000" d="M 712 224 L 801.57080078125 224 L 801.57080078125 281 L 712 281 L 712 224 Z Z" stroke-miterlimit="10"/></g><g transform="translate(-86,-94) scale(1,1)"><path fill="none" stroke="#000000" d="M 712 249 L 801.57080078125 249" stroke-miterlimit="10"/></g><g transform="translate(-86,-94) scale(1,1)"><path fill="none" stroke="#000000" d="M 712 259 L 801.57080078125 259" stroke-miterlimit="10"/></g><g transform="translate(-86,-94) scale(1,1)"><g><path fill="none" stroke="none"/><text fill="#000000" stroke="none" font-family="Arial" font-size="13px" font-style="normal" font-weight="bold" text-decoration="none" x="737.99951171875" y="243.5">Quack</text></g></g><g transform="translate(-86,-94) scale(1,1)"><g><path fill="none" stroke="none"/><text fill="#000000" stroke="none" font-family="Arial" font-size="13px" font-style="normal" font-weight="normal" text-decoration="none" x="717" y="276.5">+quack()</text></g></g><g transform="translate(-86,-94) scale(1,1)"><path fill="none" stroke="#000000" d="M 729 223 L 674 165" stroke-miterlimit="10" stroke-dasharray="3"/></g><g transform="translate(-86,-94) scale(1,1)"><path fill="#FFFFFF" stroke="none" d="M 694.0947550321893 173.95549106393983 L 674 165 L 681.8766490893761 185.54162600971088"/></g><g transform="translate(-86,-94) scale(1,1)"><path fill="none" stroke="#000000" d="M 694.0947550321893 173.95549106393983 L 674 165 L 681.8766490893761 185.54162600971088 L 694.0947550321893 173.95549106393983" stroke-miterlimit="10"/></g><g transform="translate(-86,-94) scale(1,1)"><rect fill="#C0C0C0" stroke="none" x="127" y="167" width="238.42333984375" height="160" opacity="0.2"/></g><g transform="translate(-86,-94) scale(1,1)"><rect fill="#ffffff" stroke="none" x="120" y="160" width="238.42333984375" height="160"/></g><g transform="translate(-86,-94) scale(1,1)"><path fill="none" stroke="#000000" d="M 120 160 L 358.42333984375 160 L 358.42333984375 320 L 120 320 L 120 160 Z Z" stroke-miterlimit="10"/></g><g transform="translate(-86,-94) scale(1,1)"><path fill="none" stroke="#000000" d="M 120 185 L 358.42333984375 185" stroke-miterlimit="10"/></g><g transform="translate(-86,-94) scale(1,1)"><path fill="none" stroke="#000000" d="M 120 223 L 358.42333984375 223" stroke-miterlimit="10"/></g><g transform="translate(-86,-94) scale(1,1)"><g><path fill="none" stroke="none"/><text fill="#000000" stroke="none" font-family="Arial" font-size="13px" font-style="italic" font-weight="bold" text-decoration="none" x="224.402587890625" y="179.5">Duck</text></g></g><g transform="translate(-86,-94) scale(1,1)"><g><path fill="none" stroke="none"/><text fill="#000000" stroke="none" font-family="Arial" font-size="13px" font-style="normal" font-weight="normal" text-decoration="none" x="125" y="202.5">~flyBehavior: FlyBehavior</text></g></g><g transform="translate(-86,-94) scale(1,1)"><g><path fill="none" stroke="none"/><text fill="#000000" stroke="none" font-family="Arial" font-size="13px" font-style="normal" font-weight="normal" text-decoration="none" x="125" y="217.5">~quackBehavior: QuackBehavior</text></g></g><g transform="translate(-86,-94) scale(1,1)"><g><path fill="none" stroke="none"/><text fill="#000000" stroke="none" font-family="Arial" font-size="13px" font-style="italic" font-weight="normal" text-decoration="none" x="125" y="240.5">+display()</text></g></g><g transform="translate(-86,-94) scale(1,1)"><g><path fill="none" stroke="none"/><text fill="#000000" stroke="none" font-family="Arial" font-size="13px" font-style="normal" font-weight="normal" text-decoration="none" x="125" y="255.5">+performFly()</text></g></g><g transform="translate(-86,-94) scale(1,1)"><g><path fill="none" stroke="none"/><text fill="#000000" stroke="none" font-family="Arial" font-size="13px" font-style="normal" font-weight="normal" text-decoration="none" x="125" y="270.5">+performQuack()</text></g></g><g transform="translate(-86,-94) scale(1,1)"><g><path fill="none" stroke="none"/><text fill="#000000" stroke="none" font-family="Arial" font-size="13px" font-style="normal" font-weight="normal" text-decoration="none" x="125" y="285.5">+swim()</text></g></g><g transform="translate(-86,-94) scale(1,1)"><g><path fill="none" stroke="none"/><text fill="#000000" stroke="none" font-family="Arial" font-size="13px" font-style="normal" font-weight="normal" text-decoration="none" x="125" y="300.5">+setFlyBehavior(FlyBehavior fb)</text></g></g><g transform="translate(-86,-94) scale(1,1)"><g><path fill="none" stroke="none"/><text fill="#000000" stroke="none" font-family="Arial" font-size="13px" font-style="normal" font-weight="normal" text-decoration="none" x="125" y="315.5">+setQuackBehavior(QuackBehavior qb)</text></g></g><g transform="translate(-86,-94) scale(1,1)"><rect fill="#C0C0C0" stroke="none" x="103" y="375" width="89.57080078125" height="57" opacity="0.2"/></g><g transform="translate(-86,-94) scale(1,1)"><rect fill="#ffffff" stroke="none" x="96" y="368" width="89.57080078125" height="57"/></g><g transform="translate(-86,-94) scale(1,1)"><path fill="none" stroke="#000000" d="M 96 368 L 185.57080078125 368 L 185.57080078125 425 L 96 425 L 96 368 Z Z" stroke-miterlimit="10"/></g><g transform="translate(-86,-94) scale(1,1)"><path fill="none" stroke="#000000" d="M 96 393 L 185.57080078125 393" stroke-miterlimit="10"/></g><g transform="translate(-86,-94) scale(1,1)"><path fill="none" stroke="#000000" d="M 96 403 L 185.57080078125 403" stroke-miterlimit="10"/></g><g transform="translate(-86,-94) scale(1,1)"><g><path fill="none" stroke="none"/><text fill="#000000" stroke="none" font-family="Arial" font-size="13px" font-style="normal" font-weight="bold" text-decoration="none" x="108.272705078125" y="387.5">ModelDuck</text></g></g><g transform="translate(-86,-94) scale(1,1)"><g><path fill="none" stroke="none"/><text fill="#000000" stroke="none" font-family="Arial" font-size="13px" font-style="normal" font-weight="normal" text-decoration="none" x="101" y="420.5">+display()</text></g></g><g transform="translate(-86,-94) scale(1,1)"><path fill="none" stroke="#000000" d="M 158 367 L 188 321" stroke-miterlimit="10"/></g><g transform="translate(-86,-94) scale(1,1)"><path fill="#FFFFFF" stroke="none" d="M 183.9487896822499 342.62377614944614 L 188 321 L 169.8450429621727 333.4256804624393"/></g><g transform="translate(-86,-94) scale(1,1)"><path fill="none" stroke="#000000" d="M 183.9487896822499 342.62377614944614 L 188 321 L 169.8450429621727 333.4256804624393 L 183.9487896822499 342.62377614944614" stroke-miterlimit="10"/></g><g transform="translate(-86,-94) scale(1,1)"><rect fill="#C0C0C0" stroke="none" x="255" y="375" width="89.57080078125" height="57" opacity="0.2"/></g><g transform="translate(-86,-94) scale(1,1)"><rect fill="#ffffff" stroke="none" x="248" y="368" width="89.57080078125" height="57"/></g><g transform="translate(-86,-94) scale(1,1)"><path fill="none" stroke="#000000" d="M 248 368 L 337.57080078125 368 L 337.57080078125 425 L 248 425 L 248 368 Z Z" stroke-miterlimit="10"/></g><g transform="translate(-86,-94) scale(1,1)"><path fill="none" stroke="#000000" d="M 248 393 L 337.57080078125 393" stroke-miterlimit="10"/></g><g transform="translate(-86,-94) scale(1,1)"><path fill="none" stroke="#000000" d="M 248 403 L 337.57080078125 403" stroke-miterlimit="10"/></g><g transform="translate(-86,-94) scale(1,1)"><g><path fill="none" stroke="none"/><text fill="#000000" stroke="none" font-family="Arial" font-size="13px" font-style="normal" font-weight="bold" text-decoration="none" x="256.6640625" y="387.5">MallardDuck</text></g></g><g transform="translate(-86,-94) scale(1,1)"><g><path fill="none" stroke="none"/><text fill="#000000" stroke="none" font-family="Arial" font-size="13px" font-style="normal" font-weight="normal" text-decoration="none" x="253" y="420.5">+display()</text></g></g><g transform="translate(-86,-94) scale(1,1)"><path fill="none" stroke="#000000" d="M 282 367 L 267 321" stroke-miterlimit="10"/></g><g transform="translate(-86,-94) scale(1,1)"><path fill="#FFFFFF" stroke="none" d="M 281.30550539143746 337.713842032745 L 267 321 L 265.2970488295514 342.93399091162087"/></g><g transform="translate(-86,-94) scale(1,1)"><path fill="none" stroke="#000000" d="M 281.30550539143746 337.713842032745 L 267 321 L 265.2970488295514 342.93399091162087 L 281.30550539143746 337.713842032745" stroke-miterlimit="10"/></g><g transform="translate(-86,-94) scale(1,1)"><path fill="none" stroke="#000000" d="M 359 209 L 575 152" stroke-miterlimit="10"/></g><g transform="translate(-86,-94) scale(1,1)"><path fill="none" stroke="#000000" d="M 566.2477824315528 158.66323402219697 L 575 152 L 564.0996296452025 150.52286556865928" stroke-miterlimit="10"/></g><g transform="translate(-86,-94) scale(1,1)"><path fill="none" stroke="#000000" d="M 359 267 L 575 315" stroke-miterlimit="10"/></g><g transform="translate(-86,-94) scale(1,1)"><path fill="none" stroke="#000000" d="M 564.1661556931222 316.90468305351084 L 575 315 L 565.9925009211388 308.68612952743604" stroke-miterlimit="10"/></g></g></svg>